# xmcd
#
# Track frame offsets: 
#        150
#        19720
#        42555
#        60674
#        81839
#        102832
#        126475
#        137020
#        155913
#        176156
#        191587
#        204500
#        226307
#        246092
#        261281
#
# Disc length: 3751 seconds
#
# Revision: 1
# Processed by: cddbd v1.5.2PL0 Copyright (c) Steve Scherf et al.
# Submitted via: ExactAudioCopy v1.0b3
#
DISCID=d90ea50f
DTITLE=上海老百樂門元老爵士樂隊 - 上海百樂門珍版爵士（西洋篇）
DYEAR=2003
DGENRE=Jazz
TTITLE0=Pearly Shells
TTITLE1=The Stars Are Filled With Bliss
TTITLE2=Little Black Beetle
TTITLE3=Merry Widow Waltz
TTITLE4=Woodpecker Song
TTITLE5=Yearn for San Francisco
TTITLE6=Hawaiian War Chant
TTITLE7=Envy Tango
TTITLE8=Night and Day
TTITLE9=Home On The Range
TTITLE10=Bright Mambo Dance
TTITLE11=Fantasia para un Gentilhombre
TTITLE12=The Commemorative Day Song
TTITLE13=Little Brown Jar
TTITLE14=Swinging the Blues
EXTD=
EXTT0=
EXTT1=
EXTT2=
EXTT3=
EXTT4=
EXTT5=
EXTT6=
EXTT7=
EXTT8=
EXTT9=
EXTT10=
EXTT11=
EXTT12=
EXTT13=
EXTT14=
PLAYORDER=
